# xmcd CD database file
#
# Track frame offsets:
#	225
#	13376
#	27247
#	42881
#	60879
#	77197
#	96084
#	111217
#	124388
#	137640
#	155115
#
# Disc length: 2314 seconds
#
# Revision: 0
# Processed by: cddbd v1.5.2PL0 Copyright (c) Steve Scherf et al.
# Submitted via: CDex 1.70beta2
#
DISCID=9209070b
DTITLE=The Spurs - Cdn - Black Top Fever
DYEAR=1900
DGENRE=Country
TTITLE0=Easy As 1-2-3
TTITLE1=You're My Friend
TTITLE2=Black Top Fever
TTITLE3=After It's Over
TTITLE4=Swingin' Dor of Love
TTITLE5=Selective Memory
TTITLE6=Devil Went Down To Georgia
TTITLE7=Doc's Micksburg Medley
TTITLE8=Orange Blosm Special
TTITLE9=Buck Fever - Alabama
TTITLE10=Dream On
EXTD=
EXTT0=
EXTT1=
EXTT2=
EXTT3=
EXTT4=
EXTT5=
EXTT6=
EXTT7=
EXTT8=
EXTT9=
EXTT10=
PLAYORDER=
